<svg width="24" height="25" fill="none" xmlns="http://www.w3.org/2000/svg"><path d="M22 12.276c0-5.541-4.477-10.034-10-10.034S2 6.735 2 12.276c0 5.008 3.657 9.16 8.438 9.912v-7.011h-2.54v-2.9h2.54v-2.211c0-2.515 1.492-3.904 3.777-3.904 1.093 0 2.238.196 2.238.196v2.469h-1.26c-1.243 0-1.63.773-1.63 1.568v1.881h2.773l-.443 2.9h-2.33v7.012c4.78-.753 8.437-4.904 8.437-9.912Z" fill="#fff"></path><path d="m15.893 15.175.443-2.9h-2.773v-1.882c0-.793.387-1.568 1.63-1.568h1.26V6.356s-1.144-.196-2.238-.196c-2.284 0-3.777 1.39-3.777 3.904v2.21h-2.54v2.901h2.54v7.012c1.035.162 2.09.162 3.124 0v-7.012h2.33Z" fill="#176DF0"></path></svg>