<svg width="25" height="24" viewBox="0 0 25 24" fill="none" xmlns="http://www.w3.org/2000/svg"><path d="M12.7001 0.599976C6.07349 0.599976 0.699997 5.95069 0.699997 12.5514C0.699997 17.8319 4.13839 22.3118 8.9064 23.8921C9.50612 24.0027 9.7263 23.6328 9.7263 23.3172C9.7263 23.0322 9.71517 22.0907 9.71001 21.0921C6.37157 21.815 5.66712 19.6819 5.66712 19.6819C5.12124 18.3005 4.33472 17.9332 4.33472 17.9332C3.24595 17.1914 4.41679 17.2067 4.41679 17.2067C5.62181 17.291 6.25631 18.4383 6.25631 18.4383C7.3266 20.2654 9.06358 19.7372 9.74836 19.4318C9.85606 18.6593 10.1671 18.1321 10.5102 17.8337C7.84485 17.5314 5.04295 16.5067 5.04295 11.9272C5.04295 10.6224 5.51172 9.55623 6.27936 8.71927C6.15477 8.41825 5.74402 7.20268 6.39561 5.55645C6.39561 5.55645 7.4033 5.23525 9.69649 6.78152C10.6537 6.51672 11.6803 6.38392 12.7001 6.37937C13.7199 6.38392 14.7473 6.51672 15.7063 6.78152C17.9967 5.23525 19.003 5.55645 19.003 5.55645C19.6562 7.20268 19.2452 8.41825 19.1206 8.71927C19.8901 9.55623 20.3557 10.6224 20.3557 11.9272C20.3557 16.5176 17.5484 17.5283 14.8762 17.8242C15.3067 18.195 15.6902 18.9224 15.6902 20.0374C15.6902 21.6365 15.6763 22.9235 15.6763 23.3172C15.6763 23.6352 15.8923 24.0079 16.5006 23.8905C21.266 22.3084 24.7 17.8301 24.7 12.5514C24.7 5.95069 19.3273 0.599976 12.7001 0.599976ZM5.19442 17.6251C5.16799 17.6844 5.0742 17.7022 4.98875 17.6615C4.90171 17.6225 4.85283 17.5415 4.88105 17.482C4.90688 17.4208 5.00087 17.4038 5.08771 17.4448C5.17495 17.4837 5.22463 17.5655 5.19442 17.6251ZM5.7847 18.1496C5.72747 18.2025 5.61559 18.1779 5.53968 18.0944C5.46119 18.0111 5.44648 17.8997 5.50451 17.846C5.56352 17.7932 5.67202 17.8179 5.75072 17.9012C5.82921 17.9855 5.84451 18.0962 5.7847 18.1496ZM6.18964 18.8208C6.11612 18.8716 5.9959 18.8239 5.92158 18.7176C5.84805 18.6114 5.84805 18.4839 5.92317 18.4329C5.99768 18.3818 6.11612 18.4277 6.19143 18.5332C6.26476 18.6413 6.26476 18.7687 6.18964 18.8208ZM6.8745 19.598C6.80872 19.6703 6.66863 19.6509 6.56609 19.5523C6.46117 19.4559 6.43196 19.3192 6.49793 19.247C6.5645 19.1745 6.70539 19.1949 6.80872 19.2927C6.91285 19.3889 6.94465 19.5266 6.8745 19.598ZM7.75961 19.8605C7.7306 19.9541 7.59567 19.9966 7.45974 19.9568C7.32402 19.9159 7.2352 19.8062 7.26262 19.7116C7.29084 19.6174 7.42636 19.5731 7.56328 19.6156C7.6988 19.6564 7.78783 19.7653 7.75961 19.8605ZM8.7669 19.9718C8.77028 20.0703 8.65502 20.1521 8.51234 20.1538C8.36887 20.157 8.25282 20.0772 8.25123 19.9803C8.25123 19.8807 8.3639 19.7998 8.50737 19.7974C8.65005 19.7946 8.7669 19.8738 8.7669 19.9718ZM9.75645 19.934C9.77354 20.0302 9.67438 20.1289 9.53269 20.1552C9.39339 20.1806 9.26443 20.1212 9.24674 20.0258C9.22945 19.9273 9.3304 19.8285 9.4695 19.803C9.61139 19.7784 9.73837 19.8362 9.75645 19.934Z" fill="white"></path></svg>