<svg width="24" height="25" fill="none" xmlns="http://www.w3.org/2000/svg"><path d="M21.8 12.5a8.628 8.628 0 0 0-.212-2.05H12.2v3.723h5.51a4.913 4.913 0 0 1-2.044 3.255l-.019.125 2.969 2.307.205.02c1.889-1.75 2.978-4.325 2.978-7.38" fill="#4285F4"></path><path d="M12.2 22.31c2.7 0 4.966-.891 6.622-2.43l-3.156-2.452c-.844.59-1.978 1.003-3.466 1.003a6.006 6.006 0 0 1-3.516-1.162 6.039 6.039 0 0 1-2.173-3.007l-.117.01-3.087 2.397-.04.112a10.013 10.013 0 0 0 3.684 4.037A9.966 9.966 0 0 0 12.2 22.31" fill="#34A853"></path><path d="M6.51 14.26a6.196 6.196 0 0 1-.333-1.985 6.51 6.51 0 0 1 .322-1.984l-.006-.133L3.37 7.723l-.102.048a10.04 10.04 0 0 0 0 9.008l3.244-2.52Z" fill="#FBBC05"></path><path d="M12.2 6.123a5.532 5.532 0 0 1 3.866 1.493l2.823-2.764a9.59 9.59 0 0 0-6.69-2.61c-1.853 0-3.67.517-5.248 1.494a10.014 10.014 0 0 0-3.685 4.036l3.234 2.52a6.064 6.064 0 0 1 2.18-3.005 6.031 6.031 0 0 1 3.52-1.164Z" fill="#EB4335"></path></svg>