<svg width="24" height="24" viewBox="0 0 24 24" fill="none" xmlns="http://www.w3.org/2000/svg"><path fill-rule="evenodd" clip-rule="evenodd" d="M12 3C7.02922 3 3 7.02953 3 12C3 16.9705 7.02922 21 12 21C16.9705 21 21 16.9705 21 12C21 7.02953 16.9705 3 12 3ZM19.5924 11.9005C18.5633 11.6034 17.4758 11.4438 16.3514 11.4438C15.6722 11.4438 15.0063 11.5019 14.359 11.6137C14.1491 11.1126 13.9315 10.633 13.7117 10.1769C16.786 8.8619 17.9042 7.22712 17.9042 7.22712C18.9402 8.50676 19.5694 10.1304 19.5924 11.9005ZM17.037 6.31855C15.6968 5.12925 13.9323 4.40747 12.0001 4.40747C11.3916 4.40747 10.7996 4.47918 10.2324 4.61453C10.2324 4.61453 11.6195 6.22728 13.0807 8.93991C14.5947 8.34045 16.0131 7.49853 17.037 6.31855ZM8.71204 5.15417C8.71204 5.15417 10.0395 6.85725 11.4824 9.48141C8.00734 10.4804 4.57045 10.4273 4.57045 10.4273C5.06125 8.09716 6.62029 6.16062 8.71204 5.15417ZM4.40916 11.8015C4.40761 11.8677 4.40668 11.9338 4.40668 12.0002C4.40668 13.9563 5.14646 15.7395 6.36153 17.0859C7.79794 14.7063 10.0607 12.8819 12.7523 12.0095C12.5554 11.5765 12.3537 11.1571 12.1519 10.7532C10.1961 11.3731 7.65638 11.8189 4.40916 11.8015ZM12.0001 19.593C10.2694 19.593 8.67468 19.0141 7.39722 18.0396C8.67499 15.7858 10.7795 14.0619 13.2978 13.2805C14.0177 15.0606 14.6181 17.0148 14.904 19.0175C14.0096 19.3888 13.0286 19.593 12.0001 19.593ZM14.8722 12.9248C15.4639 14.5525 15.9541 16.3651 16.2176 18.3144C17.9089 17.1828 19.1203 15.3894 19.4807 13.3042C18.4941 12.9888 17.4426 12.819 16.3511 12.819C15.8492 12.819 15.3552 12.855 14.8722 12.9248Z" fill="white"></path></svg>