<svg width="24" height="24" fill="none" xmlns="http://www.w3.org/2000/svg"><path fill-rule="evenodd" clip-rule="evenodd" d="M15.95 4c-2.319.043-4.134 2.052-4.134 4.392v.568c-4.127-.753-6.19-1.882-8.429-4.251-1.339 2.612.125 4.827 1.756 6.022-1.091 0-1.987-.158-2.691-.777-.053-.047-.137.001-.118.07.612 2.185 2.63 3.774 4.214 4.25-1.43 0-2.4.215-3.401-.435-.058-.037-.132.02-.11.085.759 2.148 2.307 2.83 4.565 2.83-1.123.833-2.617 1.708-5.476 1.768-.115.003-.172.149-.081.222 1.08.878 3.666 1.552 7.313 1.552 6.017 0 10.886-5.387 10.886-12.045v-.354c.936-.353 1.486-1.198 1.753-2.047.015-.047-.032-.091-.078-.075l-1.976.688c-.045.015-.076-.042-.04-.073.828-.687 1.484-1.532 1.743-2.34.01-.03-.023-.059-.053-.046-.948.402-1.852.779-2.566 1.002a.443.443 0 01-.354-.04c-.468-.264-1.825-.982-2.722-.966z" fill="#fff"></path></svg>